<svg width="133" height="34" viewBox="0 0 133 34" fill="none" xmlns="http://www.w3.org/2000/svg">
<path fill-rule="evenodd" clip-rule="evenodd" d="M29.7444 5.21166L29.9234 6.29358C30.0644 7.30005 30.1297 8.3157 30.1189 9.33198C30.1177 11.5778 29.8468 13.8153 29.3119 15.9965C28.5886 18.9598 27.3287 21.7656 25.5948 24.2749C23.591 27.1569 20.6938 29.9915 16.4706 32.2691L15.954 32.5475L15.4374 32.2691C11.2142 29.9915 8.31819 27.1569 6.31326 24.2749C4.57926 21.7656 3.31943 18.9598 2.59607 15.9965C2.06134 13.8157 1.79041 11.5786 1.78913 9.33317C1.77821 8.31688 1.84357 7.30124 1.98465 6.29476L2.16357 5.21285C2.17884 5.12462 2.1765 5.03423 2.15669 4.9469C2.13688 4.85958 2.09998 4.77704 2.04812 4.70404C1.99626 4.63104 1.93047 4.56902 1.85453 4.52157C1.7786 4.47411 1.69403 4.44215 1.60569 4.42754C1.51735 4.41291 1.42699 4.41592 1.33982 4.43639C1.25264 4.45684 1.17039 4.49436 1.09778 4.54676C1.02517 4.59916 0.963648 4.66541 0.916759 4.7417C0.86987 4.81799 0.838541 4.9028 0.824577 4.99125L0.64565 6.07316C0.491748 7.15283 0.42005 8.24261 0.431175 9.33317C0.432027 11.6892 0.716083 14.0365 1.27723 16.3247C2.04108 19.4495 3.37081 22.4079 5.20059 25.0535C7.31573 28.0978 10.3836 31.0912 14.7987 33.4671L15.6376 33.9185C15.7365 33.972 15.847 34 15.9593 34C16.0716 34 16.1822 33.972 16.281 33.9185L17.1188 33.4671C21.5292 31.09 24.5982 28.0978 26.7169 25.0535C28.5458 22.4081 29.8747 19.4501 30.6378 16.3259C31.199 14.0377 31.4831 11.6904 31.4839 9.33436C31.4951 8.2438 31.4233 7.15402 31.2695 6.07436L31.0905 4.99244C31.0766 4.90398 31.0452 4.81917 30.9983 4.74289C30.9515 4.6666 30.8899 4.60035 30.8173 4.54795C30.7447 4.49555 30.6624 4.45803 30.5753 4.43757C30.4881 4.4171 30.3977 4.4141 30.3094 4.42872C30.2211 4.44334 30.1365 4.47529 30.0605 4.52275C29.9846 4.57021 29.9188 4.63222 29.867 4.70522C29.8152 4.77822 29.7783 4.86076 29.7584 4.94809C29.7386 5.03542 29.7363 5.1258 29.7516 5.21404L29.7444 5.21166Z" fill="white"/>
<path fill-rule="evenodd" clip-rule="evenodd" d="M5.87143 4.47459L15.9557 1.39358L26.265 4.54095C26.4376 4.59255 26.6236 4.57367 26.7824 4.48846C26.941 4.40324 27.0595 4.25862 27.1118 4.08624C27.1642 3.91387 27.1461 3.72778 27.0616 3.56871C26.9771 3.40963 26.833 3.29052 26.6608 3.23745L16.1535 0.0296403C16.0246 -0.00988009 15.8867 -0.00988009 15.7577 0.0296403L5.47447 3.16871C5.38853 3.19441 5.30852 3.23682 5.23901 3.29351C5.16951 3.35021 5.1119 3.42008 5.06947 3.4991C5.02704 3.57812 5.00064 3.66475 4.99177 3.754C4.98291 3.84326 4.99176 3.93338 5.01782 4.0192C5.04388 4.10503 5.08663 4.18486 5.14362 4.25412C5.20061 4.32338 5.27072 4.3807 5.34993 4.42279C5.42913 4.46488 5.51587 4.49091 5.60516 4.4994C5.69445 4.50787 5.78454 4.49864 5.87025 4.47222L5.87143 4.47459Z" fill="white"/>
<path fill-rule="evenodd" clip-rule="evenodd" d="M0.891937 5.41074L15.3493 33.6283C15.4056 33.7386 15.4912 33.8313 15.5965 33.8964C15.7019 33.9615 15.823 33.9965 15.9469 33.9976C16.0707 33.9987 16.1924 33.9659 16.299 33.9026C16.4054 33.8394 16.4926 33.7482 16.5509 33.6389L25.3675 17.1495L25.3805 17.1234L31.0237 5.39178C31.1001 5.22988 31.1096 5.04434 31.05 4.87548C30.9905 4.70662 30.8667 4.56809 30.7055 4.49003C30.5444 4.41196 30.359 4.40064 30.1895 4.45855C30.0201 4.51646 29.8804 4.63891 29.8007 4.79927L24.1671 16.5214L15.9738 31.8554L2.09948 4.78979C2.05949 4.70944 2.00396 4.6378 1.93609 4.57906C1.86822 4.52032 1.78937 4.47562 1.7041 4.44757C1.61884 4.41952 1.52886 4.40867 1.43936 4.41564C1.34988 4.42262 1.26266 4.44728 1.18277 4.48821C1.10288 4.52913 1.03191 4.5855 0.973961 4.65405C0.916015 4.7226 0.872248 4.80197 0.845197 4.88755C0.818146 4.97315 0.808348 5.06325 0.816371 5.15265C0.824395 5.24205 0.850079 5.32897 0.891937 5.40837V5.41074Z" fill="white"/>
<path fill-rule="evenodd" clip-rule="evenodd" d="M7.81236 17.9771H23.8892C24.0692 17.9771 24.2417 17.9057 24.3689 17.7784C24.4961 17.6512 24.5676 17.4787 24.5676 17.2987C24.5676 17.1188 24.4961 16.9463 24.3689 16.819C24.2417 16.6918 24.0692 16.6203 23.8892 16.6203H7.81236C7.63244 16.6203 7.45988 16.6918 7.33265 16.819C7.20543 16.9463 7.13395 17.1188 7.13395 17.2987C7.13395 17.4787 7.20543 17.6512 7.33265 17.7784C7.45988 17.9057 7.63244 17.9771 7.81236 17.9771Z" fill="white"/>
<path d="M87.9375 20.2628V23.5839C87.939 23.8322 87.8908 24.0782 87.7959 24.3078C87.701 24.5374 87.5625 24.7461 87.3865 24.9216C87.2113 25.0972 87.0024 25.2363 86.7728 25.3308C86.5433 25.4254 86.2969 25.4736 86.0489 25.4726H84.318L87.8747 29.6906H86.1905L82.6491 25.4726H78.4896C78.2839 25.4621 78.0788 25.4412 77.8753 25.4097V29.6906H76.5954V18.374H86.039C86.2877 18.373 86.5333 18.4212 86.7629 18.5158C86.9932 18.6104 87.2014 18.7494 87.3773 18.925C87.5526 19.1006 87.6918 19.3092 87.786 19.5388C87.8809 19.7684 87.9291 20.0145 87.9283 20.2628H87.9375ZM78.4939 24.1822H86.0489C86.1278 24.1832 86.2058 24.1684 86.2793 24.1386C86.352 24.1089 86.4185 24.0649 86.4744 24.0092C86.5303 23.9534 86.5739 23.887 86.6037 23.814C86.6336 23.741 86.6481 23.6627 86.6473 23.5839V20.2628C86.6481 20.1828 86.6336 20.1033 86.6045 20.029C86.5746 19.9547 86.5303 19.887 86.4744 19.8298C86.4201 19.7713 86.3543 19.7248 86.2808 19.6936C86.2073 19.6623 86.1278 19.647 86.0482 19.6485H78.4928C78.3301 19.6493 78.1744 19.7143 78.0593 19.8293C77.9443 19.9444 77.8793 20.1002 77.8785 20.2628V23.5839C77.8768 23.6637 77.8921 23.743 77.9234 23.8166C77.9546 23.8901 78.0011 23.9562 78.0598 24.0105C78.1171 24.0665 78.1849 24.1105 78.2595 24.14C78.334 24.1695 78.4137 24.1839 78.4939 24.1822Z" fill="white"/>
<path fill-rule="evenodd" clip-rule="evenodd" d="M94.7064 18.3579H106.035V19.6377H101.022V29.6958H99.7423V19.6377H94.7064V18.3579ZM112.901 29.6905V18.3579H114.181V29.6905H112.901ZM131.19 18.3579H132.828L128.09 24.0242L132.843 29.6905H131.19L126.972 24.6694H123.321V29.6905H122.032V18.3579H123.323V23.3779H126.975L131.19 18.3579Z" fill="white"/>
<path d="M51.5948 19.6334H42.1819C42.0193 19.6343 41.8635 19.6993 41.7484 19.8143C41.6334 19.9293 41.5685 20.0851 41.5676 20.2478V27.8028C41.5687 27.9654 41.6338 28.121 41.7488 28.2359C41.8637 28.351 42.0193 28.416 42.1819 28.4171H51.5948V29.6969H42.1819C41.9336 29.698 41.6875 29.65 41.4577 29.5555C41.2281 29.4609 41.0194 29.3219 40.8438 29.1462C40.6682 28.9706 40.5292 28.7619 40.4346 28.5323C40.3401 28.3026 40.292 28.0565 40.2932 27.8082V20.2531C40.292 20.0047 40.3401 19.7586 40.4346 19.529C40.5292 19.2993 40.6682 19.0906 40.8438 18.915C41.0194 18.7394 41.2281 18.6003 41.4577 18.5058C41.6875 18.4112 41.9336 18.3632 42.1819 18.3643H51.5948V19.6334Z" fill="white"/>
<path d="M69.2699 18.3579V19.6377H60.2047V23.3779H67.4909V24.6684H60.2036V28.415H69.2688V29.6948H58.9238V18.3579H69.2699Z" fill="white"/>
<path d="M53.5684 8.55713L56.1284 2.95713H56.7124L59.2724 8.55713H58.6484L56.2964 3.30113H56.5364L54.1844 8.55713H53.5684ZM54.5764 7.06113L54.7524 6.58113H58.0084L58.1844 7.06113H54.5764ZM64.4976 8.60513C63.7829 8.60513 63.2202 8.3998 62.8096 7.98913C62.3989 7.57846 62.1936 6.97046 62.1936 6.16513V2.95713H62.7856V6.14113C62.7856 6.80246 62.9349 7.29046 63.2336 7.60513C63.5322 7.9198 63.9536 8.07713 64.4976 8.07713C65.0469 8.07713 65.4709 7.9198 65.7696 7.60513C66.0682 7.29046 66.2176 6.80246 66.2176 6.14113V2.95713H66.7936V6.16513C66.7936 6.97046 66.5882 7.57846 66.1776 7.98913C65.7722 8.3998 65.2122 8.60513 64.4976 8.60513ZM70.7375 8.55713V2.95713H73.0175C73.6148 2.95713 74.1375 3.07713 74.5855 3.31713C75.0388 3.5518 75.3908 3.8798 75.6415 4.30113C75.8922 4.72246 76.0175 5.2078 76.0175 5.75713C76.0175 6.30646 75.8922 6.7918 75.6415 7.21313C75.3908 7.63446 75.0388 7.96513 74.5855 8.20513C74.1375 8.4398 73.6148 8.55713 73.0175 8.55713H70.7375ZM71.3295 8.04513H72.9855C73.4815 8.04513 73.9108 7.94913 74.2735 7.75713C74.6415 7.5598 74.9268 7.29046 75.1295 6.94913C75.3322 6.60246 75.4335 6.20513 75.4335 5.75713C75.4335 5.3038 75.3322 4.90646 75.1295 4.56513C74.9268 4.2238 74.6415 3.95713 74.2735 3.76513C73.9108 3.5678 73.4815 3.46913 72.9855 3.46913H71.3295V8.04513ZM79.5069 8.55713V2.95713H80.0989V8.55713H79.5069ZM85.1689 8.55713V3.46913H83.2009V2.95713H87.7289V3.46913H85.7609V8.55713H85.1689ZM91.3627 5.46113H94.3227V5.96513H91.3627V5.46113ZM91.4267 8.04513H94.7947V8.55713H90.8347V2.95713H94.6747V3.46913H91.4267V8.04513ZM98.3462 8.55713V2.95713H100.626C101.224 2.95713 101.746 3.07713 102.194 3.31713C102.648 3.5518 103 3.8798 103.25 4.30113C103.501 4.72246 103.626 5.2078 103.626 5.75713C103.626 6.30646 103.501 6.7918 103.25 7.21313C103 7.63446 102.648 7.96513 102.194 8.20513C101.746 8.4398 101.224 8.55713 100.626 8.55713H98.3462ZM98.9382 8.04513H100.594C101.09 8.04513 101.52 7.94913 101.882 7.75713C102.25 7.5598 102.536 7.29046 102.738 6.94913C102.941 6.60246 103.042 6.20513 103.042 5.75713C103.042 5.3038 102.941 4.90646 102.738 4.56513C102.536 4.2238 102.25 3.95713 101.882 3.76513C101.52 3.5678 101.09 3.46913 100.594 3.46913H98.9382V8.04513ZM111.369 8.55713V2.95713H113.785C114.409 2.95713 114.892 3.08246 115.233 3.33313C115.58 3.5838 115.753 3.93846 115.753 4.39713C115.753 4.70113 115.681 4.95713 115.537 5.16513C115.399 5.37313 115.207 5.53046 114.961 5.63713C114.721 5.7438 114.457 5.79713 114.169 5.79713L114.305 5.60513C114.663 5.60513 114.969 5.66113 115.225 5.77313C115.487 5.8798 115.689 6.04246 115.833 6.26113C115.977 6.47446 116.049 6.74113 116.049 7.06113C116.049 7.5358 115.873 7.9038 115.521 8.16513C115.175 8.42646 114.649 8.55713 113.945 8.55713H111.369ZM111.961 8.06913H113.937C114.428 8.06913 114.804 7.98646 115.065 7.82113C115.327 7.65046 115.457 7.38113 115.457 7.01313C115.457 6.65046 115.327 6.38646 115.065 6.22113C114.804 6.05046 114.428 5.96513 113.937 5.96513H111.897V5.47713H113.745C114.193 5.47713 114.54 5.3918 114.785 5.22113C115.036 5.05046 115.161 4.79713 115.161 4.46113C115.161 4.1198 115.036 3.86646 114.785 3.70113C114.54 3.53046 114.193 3.44513 113.745 3.44513H111.961V8.06913ZM120.779 8.55713V6.47713L120.915 6.84513L118.539 2.95713H119.171L121.259 6.37313H120.923L123.011 2.95713H123.603L121.227 6.84513L121.363 6.47713V8.55713H120.779Z" fill="white"/>
<path d="M43.888 1.88892L47.338 2.75143C47.5299 2.79961 47.6668 2.99091 47.6668 3.21245V7.92983C47.6668 8.87737 47.2456 9.76256 46.5449 10.2878L43.888 12.2807L41.231 10.2878C40.5298 9.76209 40.1091 8.87737 40.1091 7.9303V3.21245C40.1091 2.99091 40.246 2.79961 40.4379 2.75143L43.888 1.88892Z" fill="#7156FB"/>
<path d="M41.9971 6.76186L43.543 8.2194L46.2482 5.6687" stroke="white" stroke-width="1.3365"/>
</svg>
